<svg xmlns="http://www.w3.org/2000/svg" class="w-full h-full leading-none markmap mm-ig6i6w-1" style=""><style>.markmap{--markmap-max-width: 9999px;--markmap-a-color: #0097e6;--markmap-a-hover-color: #00a8ff;--markmap-code-bg: #f0f0f0;--markmap-code-color: #555;--markmap-highlight-bg: #ffeaa7;--markmap-table-border: 1px solid currentColor;--markmap-font: 300 16px/20px sans-serif;--markmap-circle-open-bg: #fff;--markmap-text-color: #333;--markmap-highlight-node-bg: #ff02;font:var(--markmap-font);color:var(--markmap-text-color)}.markmap-link{fill:none}.markmap-node&gt;circle{cursor:pointer}.markmap-foreign{display:inline-block}.markmap-foreign p{margin:0}.markmap-foreign a{color:var(--markmap-a-color)}.markmap-foreign a:hover{color:var(--markmap-a-hover-color)}.markmap-foreign code{padding:.25em;font-size:calc(1em - 2px);color:var(--markmap-code-color);background-color:var(--markmap-code-bg);border-radius:2px}.markmap-foreign pre{margin:0}.markmap-foreign pre&gt;code{display:block}.markmap-foreign del{text-decoration:line-through}.markmap-foreign em{font-style:italic}.markmap-foreign strong{font-weight:700}.markmap-foreign mark{background:var(--markmap-highlight-bg)}.markmap-foreign table,.markmap-foreign th,.markmap-foreign td{border-collapse:collapse;border:var(--markmap-table-border)}.markmap-foreign img{display:inline-block}.markmap-foreign svg{fill:currentColor}.markmap-foreign&gt;div{width:var(--markmap-max-width);text-align:left}.markmap-foreign&gt;div&gt;div{display:inline-block}.markmap-highlight rect{fill:var(--markmap-highlight-node-bg)}.markmap-dark .markmap{--markmap-code-bg: #1a1b26;--markmap-code-color: #ddd;--markmap-circle-open-bg: #444;--markmap-text-color: #eee}</style><g transform="translate(42.37946367523955,481.75242687608306) scale(0.49207277691820916)"><path class="markmap-link" data-depth="5" data-path="1.2.3.4.5" d="M1121,-669.295C1161,-669.295,1161,-708.482,1201,-708.482" stroke-width="1.09375" stroke="rgb(227, 119, 194)"/><path class="markmap-link" data-depth="5" data-path="1.2.3.4.6" d="M1121,-669.295C1161,-669.295,1161,-682.389,1201,-682.389" stroke-width="1.09375" stroke="rgb(127, 127, 127)"/><path class="markmap-link" data-depth="5" data-path="1.2.3.4.7" d="M1121,-669.295C1161,-669.295,1161,-656.295,1201,-656.295" stroke-width="1.09375" stroke="rgb(188, 189, 34)"/><path class="markmap-link" data-depth="5" data-path="1.2.3.4.8" d="M1121,-669.295C1161,-669.295,1161,-630.201,1201,-630.201" stroke-width="1.09375" stroke="rgb(23, 190, 207)"/><path class="markmap-link" data-depth="5" data-path="1.2.3.9.10" d="M1104,-559.92C1144,-559.92,1144,-599.107,1184,-599.107" stroke-width="1.09375" stroke="rgb(255, 127, 14)"/><path class="markmap-link" data-depth="5" data-path="1.2.3.9.11" d="M1104,-559.92C1144,-559.92,1144,-573.014,1184,-573.014" stroke-width="1.09375" stroke="rgb(44, 160, 44)"/><path class="markmap-link" data-depth="5" data-path="1.2.3.9.12" d="M1104,-559.92C1144,-559.92,1144,-546.92,1184,-546.92" stroke-width="1.09375" stroke="rgb(214, 39, 40)"/><path class="markmap-link" data-depth="5" data-path="1.2.3.9.13" d="M1104,-559.92C1144,-559.92,1144,-520.826,1184,-520.826" stroke-width="1.09375" stroke="rgb(148, 103, 189)"/><path class="markmap-link" data-depth="4" data-path="1.2.3.4" d="M871,-614.514C911,-614.514,911,-669.295,951,-669.295" stroke-width="1.1875" stroke="rgb(140, 86, 75)"/><path class="markmap-link" data-depth="4" data-path="1.2.3.9" d="M871,-614.514C911,-614.514,911,-559.92,951,-559.92" stroke-width="1.1875" stroke="rgb(31, 119, 180)"/><path class="markmap-link" data-depth="5" data-path="1.2.14.17.18" d="M1020,-445.451C1060,-445.451,1060,-458.545,1100,-458.545" stroke-width="1.09375" stroke="rgb(23, 190, 207)"/><path class="markmap-link" data-depth="5" data-path="1.2.14.17.19" d="M1020,-445.451C1060,-445.451,1060,-432.451,1100,-432.451" stroke-width="1.09375" stroke="rgb(31, 119, 180)"/><path class="markmap-link" data-depth="5" data-path="1.2.14.20.21" d="M1018,-388.264C1058,-388.264,1058,-401.357,1098,-401.357" stroke-width="1.09375" stroke="rgb(44, 160, 44)"/><path class="markmap-link" data-depth="5" data-path="1.2.14.20.22" d="M1018,-388.264C1058,-388.264,1058,-375.264,1098,-375.264" stroke-width="1.09375" stroke="rgb(214, 39, 40)"/><path class="markmap-link" data-depth="5" data-path="1.2.14.23.24" d="M1024,-318.029C1064,-318.029,1064,-344.17,1104,-344.17" stroke-width="1.09375" stroke="rgb(140, 86, 75)"/><path class="markmap-link" data-depth="5" data-path="1.2.14.23.25" d="M1024,-318.029C1064,-318.029,1064,-318.076,1104,-318.076" stroke-width="1.09375" stroke="rgb(227, 119, 194)"/><path class="markmap-link" data-depth="5" data-path="1.2.14.23.26" d="M1024,-318.029C1064,-318.029,1064,-291.982,1104,-291.982" stroke-width="1.09375" stroke="rgb(127, 127, 127)"/><path class="markmap-link" data-depth="4" data-path="1.2.14.15" d="M837,-335.889C877,-335.889,877,-515.873,917,-515.873" stroke-width="1.1875" stroke="rgb(227, 119, 194)"/><path class="markmap-link" data-depth="4" data-path="1.2.14.16" d="M837,-335.889C877,-335.889,877,-489.686,917,-489.686" stroke-width="1.1875" stroke="rgb(127, 127, 127)"/><path class="markmap-link" data-depth="4" data-path="1.2.14.17" d="M837,-335.889C877,-335.889,877,-445.451,917,-445.451" stroke-width="1.1875" stroke="rgb(188, 189, 34)"/><path class="markmap-link" data-depth="4" data-path="1.2.14.20" d="M837,-335.889C877,-335.889,877,-388.264,917,-388.264" stroke-width="1.1875" stroke="rgb(255, 127, 14)"/><path class="markmap-link" data-depth="4" data-path="1.2.14.23" d="M837,-335.889C877,-335.889,877,-318.029,917,-318.029" stroke-width="1.1875" stroke="rgb(148, 103, 189)"/><path class="markmap-link" data-depth="4" data-path="1.2.14.27" d="M837,-335.889C877,-335.889,877,-260.842,917,-260.842" stroke-width="1.1875" stroke="rgb(188, 189, 34)"/><path class="markmap-link" data-depth="4" data-path="1.2.14.29" d="M837,-335.889C877,-335.889,877,-234.654,917,-234.654" stroke-width="1.1875" stroke="rgb(31, 119, 180)"/><path class="markmap-link" data-depth="4" data-path="1.2.14.30" d="M837,-335.889C877,-335.889,877,-208.467,917,-208.467" stroke-width="1.1875" stroke="rgb(255, 127, 14)"/><path class="markmap-link" data-depth="4" data-path="1.2.14.31" d="M837,-335.889C877,-335.889,877,-182.279,917,-182.279" stroke-width="1.1875" stroke="rgb(44, 160, 44)"/><path class="markmap-link" data-depth="4" data-path="1.2.14.32" d="M837,-335.889C877,-335.889,877,-156.092,917,-156.092" stroke-width="1.1875" stroke="rgb(214, 39, 40)"/><path class="markmap-link" data-depth="5" data-path="1.2.33.35.36" d="M1000,-41.529C1040,-41.529,1040,-93.764,1080,-93.764" stroke-width="1.09375" stroke="rgb(127, 127, 127)"/><path class="markmap-link" data-depth="5" data-path="1.2.33.35.37" d="M1000,-41.529C1040,-41.529,1040,-67.67,1080,-67.67" stroke-width="1.09375" stroke="rgb(188, 189, 34)"/><path class="markmap-link" data-depth="5" data-path="1.2.33.35.38" d="M1000,-41.529C1040,-41.529,1040,-41.576,1080,-41.576" stroke-width="1.09375" stroke="rgb(23, 190, 207)"/><path class="markmap-link" data-depth="5" data-path="1.2.33.35.39" d="M1000,-41.529C1040,-41.529,1040,-15.482,1080,-15.482" stroke-width="1.09375" stroke="rgb(31, 119, 180)"/><path class="markmap-link" data-depth="5" data-path="1.2.33.35.40" d="M1000,-41.529C1040,-41.529,1040,10.611,1080,10.611" stroke-width="1.09375" stroke="rgb(255, 127, 14)"/><path class="markmap-link" data-depth="5" data-path="1.2.33.41.42" d="M1008,67.846C1048,67.846,1048,41.705,1088,41.705" stroke-width="1.09375" stroke="rgb(214, 39, 40)"/><path class="markmap-link" data-depth="5" data-path="1.2.33.41.43" d="M1008,67.846C1048,67.846,1048,67.799,1088,67.799" stroke-width="1.09375" stroke="rgb(148, 103, 189)"/><path class="markmap-link" data-depth="5" data-path="1.2.33.41.44" d="M1008,67.846C1048,67.846,1048,93.893,1088,93.893" stroke-width="1.09375" stroke="rgb(140, 86, 75)"/><path class="markmap-link" data-depth="5" data-path="1.2.33.45.46" d="M961,164.174C1001,164.174,1001,124.986,1041,124.986" stroke-width="1.09375" stroke="rgb(127, 127, 127)"/><path class="markmap-link" data-depth="5" data-path="1.2.33.45.47" d="M961,164.174C1001,164.174,1001,151.08,1041,151.08" stroke-width="1.09375" stroke="rgb(188, 189, 34)"/><path class="markmap-link" data-depth="5" data-path="1.2.33.45.48" d="M961,164.174C1001,164.174,1001,177.174,1041,177.174" stroke-width="1.09375" stroke="rgb(23, 190, 207)"/><path class="markmap-link" data-depth="5" data-path="1.2.33.45.49" d="M961,164.174C1001,164.174,1001,203.268,1041,203.268" stroke-width="1.09375" stroke="rgb(31, 119, 180)"/><path class="markmap-link" data-depth="4" data-path="1.2.33.34" d="M772,19.729C812,19.729,812,-124.904,852,-124.904" stroke-width="1.1875" stroke="rgb(140, 86, 75)"/><path class="markmap-link" data-depth="4" data-path="1.2.33.35" d="M772,19.729C812,19.729,812,-41.529,852,-41.529" stroke-width="1.1875" stroke="rgb(227, 119, 194)"/><path class="markmap-link" data-depth="4" data-path="1.2.33.41" d="M772,19.729C812,19.729,812,67.846,852,67.846" stroke-width="1.1875" stroke="rgb(44, 160, 44)"/><path class="markmap-link" data-depth="4" data-path="1.2.33.45" d="M772,19.729C812,19.729,812,164.174,852,164.174" stroke-width="1.1875" stroke="rgb(227, 119, 194)"/><path class="markmap-link" data-depth="3" data-path="1.2.3" d="M367,-297.205C407,-297.205,407,-614.514,447,-614.514" stroke-width="1.375" stroke="rgb(148, 103, 189)"/><path class="markmap-link" data-depth="3" data-path="1.2.14" d="M367,-297.205C407,-297.205,407,-335.889,447,-335.889" stroke-width="1.375" stroke="rgb(140, 86, 75)"/><path class="markmap-link" data-depth="3" data-path="1.2.33" d="M367,-297.205C407,-297.205,407,19.729,447,19.729" stroke-width="1.375" stroke="rgb(148, 103, 189)"/><path class="markmap-link" data-depth="2" data-path="1.2" d="M219,11.25C259,11.25,259,-297.205,299,-297.205" stroke-width="1.75" stroke="rgb(255, 127, 14)"/><path class="markmap-link" data-depth="4" data-path="1.50.52.53" d="M652,253.018C692,253.018,692,226.736,732,226.736" stroke-width="1.1875" stroke="rgb(188, 189, 34)"/><path class="markmap-link" data-depth="4" data-path="1.50.52.54" d="M652,253.018C692,253.018,692,252.924,732,252.924" stroke-width="1.1875" stroke="rgb(23, 190, 207)"/><path class="markmap-link" data-depth="4" data-path="1.50.52.55" d="M652,253.018C692,253.018,692,279.111,732,279.111" stroke-width="1.1875" stroke="rgb(31, 119, 180)"/><path class="markmap-link" data-depth="4" data-path="1.50.56.57" d="M712,336.58C752,336.58,752,310.299,792,310.299" stroke-width="1.1875" stroke="rgb(188, 189, 34)"/><path class="markmap-link" data-depth="4" data-path="1.50.56.58" d="M712,336.58C752,336.58,752,336.486,792,336.486" stroke-width="1.1875" stroke="rgb(23, 190, 207)"/><path class="markmap-link" data-depth="4" data-path="1.50.56.59" d="M712,336.58C752,336.58,752,362.674,792,362.674" stroke-width="1.1875" stroke="rgb(31, 119, 180)"/><path class="markmap-link" data-depth="3" data-path="1.50.51" d="M384,318.955C424,318.955,424,195.455,464,195.455" stroke-width="1.375" stroke="rgb(44, 160, 44)"/><path class="markmap-link" data-depth="3" data-path="1.50.52" d="M384,318.955C424,318.955,424,253.018,464,253.018" stroke-width="1.375" stroke="rgb(127, 127, 127)"/><path class="markmap-link" data-depth="3" data-path="1.50.56" d="M384,318.955C424,318.955,424,336.58,464,336.58" stroke-width="1.375" stroke="rgb(127, 127, 127)"/><path class="markmap-link" data-depth="3" data-path="1.50.60" d="M384,318.955C424,318.955,424,362.955,464,362.955" stroke-width="1.375" stroke="rgb(255, 127, 14)"/><path class="markmap-link" data-depth="3" data-path="1.50.61" d="M384,318.955C424,318.955,424,389.33,464,389.33" stroke-width="1.375" stroke="rgb(255, 127, 14)"/><path class="markmap-link" data-depth="3" data-path="1.50.62" d="M384,318.955C424,318.955,424,415.705,464,415.705" stroke-width="1.375" stroke="rgb(44, 160, 44)"/><path class="markmap-link" data-depth="3" data-path="1.50.63" d="M384,318.955C424,318.955,424,442.08,464,442.08" stroke-width="1.375" stroke="rgb(214, 39, 40)"/><path class="markmap-link" data-depth="2" data-path="1.50" d="M219,11.25C259,11.25,259,318.955,299,318.955" stroke-width="1.75" stroke="rgb(255, 127, 14)"/><path class="markmap-link" data-depth="5" data-path="1.2.14.27.28" d="M1254,-260.842C1294,-260.842,1294,-260.889,1334,-260.889" stroke-width="1.09375" stroke="rgb(23, 190, 207)"/><g class="markmap-highlight"/><g data-depth="5" data-path="1.2.3.4.5" class="markmap-node" transform="translate(1201, -729.029296875)"><line stroke="#e377c2" stroke-width="1.09375" x1="-1" x2="127" y1="20.546875" y2="20.546875"/><foreignObject class="markmap-foreign" x="8" y="0" style="opacity: 1;" width="109" height="20"><div xmlns="http://www.w3.org/1999/xhtml"><div xmlns="http://www.w3.org/1999/xhtml">Agent Behavior</div></div></foreignObject></g><g data-depth="5" data-path="1.2.3.4.6" class="markmap-node" transform="translate(1201, -702.935546875)"><line stroke="#7f7f7f" stroke-width="1.09375" x1="-1" x2="147" y1="20.546875" y2="20.546875"/><foreignObject class="markmap-foreign" x="8" y="0" style="opacity: 1;" width="129" height="20"><div xmlns="http://www.w3.org/1999/xhtml"><div xmlns="http://www.w3.org/1999/xhtml">Agent Capabilities</div></div></foreignObject></g><g data-depth="5" data-path="1.2.3.4.7" class="markmap-node" transform="translate(1201, -676.841796875)"><line stroke="#bcbd22" stroke-width="1.09375" x1="-1" x2="133" y1="20.546875" y2="20.546875"/><foreignObject class="markmap-foreign" x="8" y="0" style="opacity: 1;" width="115" height="20"><div xmlns="http://www.w3.org/1999/xhtml"><div xmlns="http://www.w3.org/1999/xhtml">Agent Reliability</div></div></foreignObject></g><g data-depth="5" data-path="1.2.3.4.8" class="markmap-node" transform="translate(1201, -650.748046875)"><line stroke="#17becf" stroke-width="1.09375" x1="-1" x2="110" y1="20.546875" y2="20.546875"/><foreignObject class="markmap-foreign" x="8" y="0" style="opacity: 1;" width="92" height="20"><div xmlns="http://www.w3.org/1999/xhtml"><div xmlns="http://www.w3.org/1999/xhtml">Agent Safety</div></div></foreignObject></g><g data-depth="4" data-path="1.2.3.4" class="markmap-node" transform="translate(951, -689.888671875)"><line stroke="#8c564b" stroke-width="1.1875" x1="-1" x2="172" y1="20.59375" y2="20.59375"/><circle stroke-width="1.5" r="6" stroke="#8c564b" fill="var(--markmap-circle-open-bg)" cx="170" cy="20.59375"/><foreignObject class="markmap-foreign" x="8" y="0" style="opacity: 1;" width="154" height="20"><div xmlns="http://www.w3.org/1999/xhtml"><div xmlns="http://www.w3.org/1999/xhtml">Evaluation Objectives</div></div></foreignObject></g><g data-depth="5" data-path="1.2.3.9.10" class="markmap-node" transform="translate(1184, -619.654296875)"><line stroke="#ff7f0e" stroke-width="1.09375" x1="-1" x2="145" y1="20.546875" y2="20.546875"/><foreignObject class="markmap-foreign" x="8" y="0" style="opacity: 1;" width="127" height="20"><div xmlns="http://www.w3.org/1999/xhtml"><div xmlns="http://www.w3.org/1999/xhtml">Interaction modes</div></div></foreignObject></g><g data-depth="5" data-path="1.2.3.9.11" class="markmap-node" transform="translate(1184, -593.560546875)"><line stroke="#2ca02c" stroke-width="1.09375" x1="-1" x2="187" y1="20.546875" y2="20.546875"/><foreignObject class="markmap-foreign" x="8" y="0" style="opacity: 1;" width="169" height="20"><div xmlns="http://www.w3.org/1999/xhtml"><div xmlns="http://www.w3.org/1999/xhtml">Benchmarks &amp; datasets</div></div></foreignObject></g><g data-depth="5" data-path="1.2.3.9.12" class="markmap-node" transform="translate(1184, -567.466796875)"><line stroke="#d62728" stroke-width="1.09375" x1="-1" x2="136" y1="20.546875" y2="20.546875"/><foreignObject class="markmap-foreign" x="8" y="0" style="opacity: 1;" width="118" height="20"><div xmlns="http://www.w3.org/1999/xhtml"><div xmlns="http://www.w3.org/1999/xhtml">Metrics &amp; tooling</div></div></foreignObject></g><g data-depth="5" data-path="1.2.3.9.13" class="markmap-node" transform="translate(1184, -541.373046875)"><line stroke="#9467bd" stroke-width="1.09375" x1="-1" x2="157" y1="20.546875" y2="20.546875"/><foreignObject class="markmap-foreign" x="8" y="0" style="opacity: 1;" width="139" height="20"><div xmlns="http://www.w3.org/1999/xhtml"><div xmlns="http://www.w3.org/1999/xhtml">Evaluation contexts</div></div></foreignObject></g><g data-depth="4" data-path="1.2.3.9" class="markmap-node" transform="translate(951, -580.513671875)"><line stroke="#1f77b4" stroke-width="1.1875" x1="-1" x2="155" y1="20.59375" y2="20.59375"/><circle stroke-width="1.5" r="6" stroke="#1f77b4" fill="var(--markmap-circle-open-bg)" cx="153" cy="20.59375"/><foreignObject class="markmap-foreign" x="8" y="0" style="opacity: 1;" width="137" height="20"><div xmlns="http://www.w3.org/1999/xhtml"><div xmlns="http://www.w3.org/1999/xhtml">Evaluation Process</div></div></foreignObject></g><g data-depth="3" data-path="1.2.3" class="markmap-node" transform="translate(447, -635.201171875)"><line stroke="#9467bd" stroke-width="1.375" x1="-1" x2="426" y1="20.6875" y2="20.6875"/><circle stroke-width="1.5" r="6" stroke="#9467bd" fill="var(--markmap-circle-open-bg)" cx="424" cy="20.6875"/><foreignObject class="markmap-foreign" x="8" y="0" style="opacity: 1;" width="408" height="20"><div xmlns="http://www.w3.org/1999/xhtml"><div xmlns="http://www.w3.org/1999/xhtml">SAP Labs – Evaluation and Benchmarking of LLM Agents</div></div></foreignObject></g><g data-depth="4" data-path="1.2.14.15" class="markmap-node" transform="translate(917, -536.466796875)"><line stroke="#e377c2" stroke-width="1.1875" x1="-1" x2="174" y1="20.59375" y2="20.59375"/><foreignObject class="markmap-foreign" x="8" y="0" style="opacity: 1;" width="156" height="20"><div xmlns="http://www.w3.org/1999/xhtml"><div xmlns="http://www.w3.org/1999/xhtml">Reliability ≠ Capability</div></div></foreignObject></g><g data-depth="4" data-path="1.2.14.16" class="markmap-node" transform="translate(917, -510.279296875)"><line stroke="#7f7f7f" stroke-width="1.1875" x1="-1" x2="386" y1="20.59375" y2="20.59375"/><foreignObject class="markmap-foreign" x="8" y="0" style="opacity: 1;" width="368" height="20"><div xmlns="http://www.w3.org/1999/xhtml"><div xmlns="http://www.w3.org/1999/xhtml">Holistic Reliability Profile – 12 метрик, 4 измерения</div></div></foreignObject></g><g data-depth="5" data-path="1.2.14.17.18" class="markmap-node" transform="translate(1100, -479.091796875)"><line stroke="#17becf" stroke-width="1.09375" x1="-1" x2="175" y1="20.546875" y2="20.546875"/><foreignObject class="markmap-foreign" x="8" y="0" style="opacity: 1;" width="157" height="20"><div xmlns="http://www.w3.org/1999/xhtml"><div xmlns="http://www.w3.org/1999/xhtml">Outcome Consistency</div></div></foreignObject></g><g data-depth="5" data-path="1.2.14.17.19" class="markmap-node" transform="translate(1100, -452.998046875)"><line stroke="#1f77b4" stroke-width="1.09375" x1="-1" x2="180" y1="20.546875" y2="20.546875"/><foreignObject class="markmap-foreign" x="8" y="0" style="opacity: 1;" width="162" height="20"><div xmlns="http://www.w3.org/1999/xhtml"><div xmlns="http://www.w3.org/1999/xhtml">Trajectory Consistency</div></div></foreignObject></g><g data-depth="4" data-path="1.2.14.17" class="markmap-node" transform="translate(917, -466.044921875)"><line stroke="#bcbd22" stroke-width="1.1875" x1="-1" x2="105" y1="20.59375" y2="20.59375"/><circle stroke-width="1.5" r="6" stroke="#bcbd22" fill="var(--markmap-circle-open-bg)" cx="103" cy="20.59375"/><foreignObject class="markmap-foreign" x="8" y="0" style="opacity: 1;" width="87" height="20"><div xmlns="http://www.w3.org/1999/xhtml"><div xmlns="http://www.w3.org/1999/xhtml">Consistency</div></div></foreignObject></g><g data-depth="5" data-path="1.2.14.20.21" class="markmap-node" transform="translate(1098, -421.904296875)"><line stroke="#2ca02c" stroke-width="1.09375" x1="-1" x2="222" y1="20.546875" y2="20.546875"/><foreignObject class="markmap-foreign" x="8" y="0" style="opacity: 1;" width="204" height="20"><div xmlns="http://www.w3.org/1999/xhtml"><div xmlns="http://www.w3.org/1999/xhtml">Fault / Environment / Prompt</div></div></foreignObject></g><g data-depth="5" data-path="1.2.14.20.22" class="markmap-node" transform="translate(1098, -395.810546875)"><line stroke="#d62728" stroke-width="1.09375" x1="-1" x2="117" y1="20.546875" y2="20.546875"/><foreignObject class="markmap-foreign" x="8" y="0" style="opacity: 1;" width="99" height="20"><div xmlns="http://www.w3.org/1999/xhtml"><div xmlns="http://www.w3.org/1999/xhtml">Fault injection</div></div></foreignObject></g><g data-depth="4" data-path="1.2.14.20" class="markmap-node" transform="translate(917, -408.857421875)"><line stroke="#ff7f0e" stroke-width="1.1875" x1="-1" x2="103" y1="20.59375" y2="20.59375"/><circle stroke-width="1.5" r="6" stroke="#ff7f0e" fill="var(--markmap-circle-open-bg)" cx="101" cy="20.59375"/><foreignObject class="markmap-foreign" x="8" y="0" style="opacity: 1;" width="85" height="20"><div xmlns="http://www.w3.org/1999/xhtml"><div xmlns="http://www.w3.org/1999/xhtml">Robustness</div></div></foreignObject></g><g data-depth="5" data-path="1.2.14.23.24" class="markmap-node" transform="translate(1104, -364.716796875)"><line stroke="#8c564b" stroke-width="1.09375" x1="-1" x2="141" y1="20.546875" y2="20.546875"/><foreignObject class="markmap-foreign" x="8" y="0" style="opacity: 1;" width="123" height="20"><div xmlns="http://www.w3.org/1999/xhtml"><div xmlns="http://www.w3.org/1999/xhtml">Calibration (Pcal)</div></div></foreignObject></g><g data-depth="5" data-path="1.2.14.23.25" class="markmap-node" transform="translate(1104, -338.623046875)"><line stroke="#e377c2" stroke-width="1.09375" x1="-1" x2="201" y1="20.546875" y2="20.546875"/><foreignObject class="markmap-foreign" x="8" y="0" style="opacity: 1;" width="183" height="20"><div xmlns="http://www.w3.org/1999/xhtml"><div xmlns="http://www.w3.org/1999/xhtml">Discrimination (PAUROC)</div></div></foreignObject></g><g data-depth="5" data-path="1.2.14.23.26" class="markmap-node" transform="translate(1104, -312.529296875)"><line stroke="#7f7f7f" stroke-width="1.09375" x1="-1" x2="98" y1="20.546875" y2="20.546875"/><foreignObject class="markmap-foreign" x="8" y="0" style="opacity: 1;" width="80" height="20"><div xmlns="http://www.w3.org/1999/xhtml"><div xmlns="http://www.w3.org/1999/xhtml">Brier Score</div></div></foreignObject></g><g data-depth="4" data-path="1.2.14.23" class="markmap-node" transform="translate(917, -338.623046875)"><line stroke="#9467bd" stroke-width="1.1875" x1="-1" x2="109" y1="20.59375" y2="20.59375"/><circle stroke-width="1.5" r="6" stroke="#9467bd" fill="var(--markmap-circle-open-bg)" cx="107" cy="20.59375"/><foreignObject class="markmap-foreign" x="8" y="0" style="opacity: 1;" width="91" height="20"><div xmlns="http://www.w3.org/1999/xhtml"><div xmlns="http://www.w3.org/1999/xhtml">Predictability</div></div></foreignObject></g><g data-depth="5" data-path="1.2.14.27.28" class="markmap-node" transform="translate(1334, -281.435546875)"><line stroke="#17becf" stroke-width="1.09375" x1="-1" x2="369" y1="20.546875" y2="20.546875"/><foreignObject class="markmap-foreign" x="8" y="0" style="opacity: 1;" width="351" height="20"><div xmlns="http://www.w3.org/1999/xhtml"><div xmlns="http://www.w3.org/1999/xhtml">Kaplan-Garrick: Risk = probability × consequence</div></div></foreignObject></g><g data-depth="4" data-path="1.2.14.27" class="markmap-node" transform="translate(917, -281.435546875)"><line stroke="#bcbd22" stroke-width="1.1875" x1="-1" x2="339" y1="20.59375" y2="20.59375"/><circle stroke-width="1.5" r="6" stroke="#bcbd22" fill="var(--markmap-circle-open-bg)" cx="337" cy="20.59375"/><foreignObject class="markmap-foreign" x="8" y="0" style="opacity: 1;" width="321" height="20"><div xmlns="http://www.w3.org/1999/xhtml"><div xmlns="http://www.w3.org/1999/xhtml">Safety – tail phenomenon, нельзя усреднять</div></div></foreignObject></g><g data-depth="4" data-path="1.2.14.29" class="markmap-node" transform="translate(917, -255.248046875)"><line stroke="#1f77b4" stroke-width="1.1875" x1="-1" x2="294" y1="20.59375" y2="20.59375"/><foreignObject class="markmap-foreign" x="8" y="0" style="opacity: 1;" width="276" height="20"><div xmlns="http://www.w3.org/1999/xhtml"><div xmlns="http://www.w3.org/1999/xhtml">Disentangling Reliability and Capability</div></div></foreignObject></g><g data-depth="4" data-path="1.2.14.30" class="markmap-node" transform="translate(917, -229.060546875)"><line stroke="#ff7f0e" stroke-width="1.1875" x1="-1" x2="226" y1="20.59375" y2="20.59375"/><foreignObject class="markmap-foreign" x="8" y="0" style="opacity: 1;" width="208" height="20"><div xmlns="http://www.w3.org/1999/xhtml"><div xmlns="http://www.w3.org/1999/xhtml">Automation vs. Augmentation</div></div></foreignObject></g><g data-depth="4" data-path="1.2.14.31" class="markmap-node" transform="translate(917, -202.873046875)"><line stroke="#2ca02c" stroke-width="1.1875" x1="-1" x2="318" y1="20.59375" y2="20.59375"/><foreignObject class="markmap-foreign" x="8" y="0" style="opacity: 1;" width="300" height="20"><div xmlns="http://www.w3.org/1999/xhtml"><div xmlns="http://www.w3.org/1999/xhtml">Safety-critical engineering как фундамент</div></div></foreignObject></g><g data-depth="4" data-path="1.2.14.32" class="markmap-node" transform="translate(917, -176.685546875)"><line stroke="#d62728" stroke-width="1.1875" x1="-1" x2="219" y1="20.59375" y2="20.59375"/><foreignObject class="markmap-foreign" x="8" y="0" style="opacity: 1;" width="201" height="20"><div xmlns="http://www.w3.org/1999/xhtml"><div xmlns="http://www.w3.org/1999/xhtml">Бенчмарки – GAIA, τ-bench</div></div></foreignObject></g><g data-depth="3" data-path="1.2.14" class="markmap-node" transform="translate(447, -356.576171875)"><line stroke="#8c564b" stroke-width="1.375" x1="-1" x2="392" y1="20.6875" y2="20.6875"/><circle stroke-width="1.5" r="6" stroke="#8c564b" fill="var(--markmap-circle-open-bg)" cx="390" cy="20.6875"/><foreignObject class="markmap-foreign" x="8" y="0" style="opacity: 1;" width="374" height="20"><div xmlns="http://www.w3.org/1999/xhtml"><div xmlns="http://www.w3.org/1999/xhtml">Princeton – Towards a Science of AI Agent Reliability</div></div></foreignObject></g><g data-depth="4" data-path="1.2.33.34" class="markmap-node" transform="translate(852, -145.498046875)"><line stroke="#8c564b" stroke-width="1.1875" x1="-1" x2="271" y1="20.59375" y2="20.59375"/><foreignObject class="markmap-foreign" x="8" y="0" style="opacity: 1;" width="253" height="20"><div xmlns="http://www.w3.org/1999/xhtml"><div xmlns="http://www.w3.org/1999/xhtml">Reasonably Reachable Capabilities</div></div></foreignObject></g><g data-depth="5" data-path="1.2.33.35.36" class="markmap-node" transform="translate(1080, -114.310546875)"><line stroke="#7f7f7f" stroke-width="1.09375" x1="-1" x2="128" y1="20.546875" y2="20.546875"/><foreignObject class="markmap-foreign" x="8" y="0" style="opacity: 1;" width="110" height="20"><div xmlns="http://www.w3.org/1999/xhtml"><div xmlns="http://www.w3.org/1999/xhtml">Basic elicitation</div></div></foreignObject></g><g data-depth="5" data-path="1.2.33.35.37" class="markmap-node" transform="translate(1080, -88.216796875)"><line stroke="#bcbd22" stroke-width="1.09375" x1="-1" x2="155" y1="20.546875" y2="20.546875"/><foreignObject class="markmap-foreign" x="8" y="0" style="opacity: 1;" width="137" height="20"><div xmlns="http://www.w3.org/1999/xhtml"><div xmlns="http://www.w3.org/1999/xhtml">Dev set exploration</div></div></foreignObject></g><g data-depth="5" data-path="1.2.33.35.38" class="markmap-node" transform="translate(1080, -62.123046875)"><line stroke="#17becf" stroke-width="1.09375" x1="-1" x2="181" y1="20.546875" y2="20.546875"/><foreignObject class="markmap-foreign" x="8" y="0" style="opacity: 1;" width="163" height="20"><div xmlns="http://www.w3.org/1999/xhtml"><div xmlns="http://www.w3.org/1999/xhtml">Test set – один прогон</div></div></foreignObject></g><g data-depth="5" data-path="1.2.33.35.39" class="markmap-node" transform="translate(1080, -36.029296875)"><line stroke="#1f77b4" stroke-width="1.09375" x1="-1" x2="162" y1="20.546875" y2="20.546875"/><foreignObject class="markmap-foreign" x="8" y="0" style="opacity: 1;" width="144" height="20"><div xmlns="http://www.w3.org/1999/xhtml"><div xmlns="http://www.w3.org/1999/xhtml">Failure classification</div></div></foreignObject></g><g data-depth="5" data-path="1.2.33.35.40" class="markmap-node" transform="translate(1080, -9.935546875)"><line stroke="#ff7f0e" stroke-width="1.09375" x1="-1" x2="94" y1="20.546875" y2="20.546875"/><foreignObject class="markmap-foreign" x="8" y="0" style="opacity: 1;" width="76" height="20"><div xmlns="http://www.w3.org/1999/xhtml"><div xmlns="http://www.w3.org/1999/xhtml">Attestation</div></div></foreignObject></g><g data-depth="4" data-path="1.2.33.35" class="markmap-node" transform="translate(852, -62.123046875)"><line stroke="#e377c2" stroke-width="1.1875" x1="-1" x2="150" y1="20.59375" y2="20.59375"/><circle stroke-width="1.5" r="6" stroke="#e377c2" fill="var(--markmap-circle-open-bg)" cx="148" cy="20.59375"/><foreignObject class="markmap-foreign" x="8" y="0" style="opacity: 1;" width="132" height="20"><div xmlns="http://www.w3.org/1999/xhtml"><div xmlns="http://www.w3.org/1999/xhtml">Elicitation Protocol</div></div></foreignObject></g><g data-depth="5" data-path="1.2.33.41.42" class="markmap-node" transform="translate(1088, 21.158203125)"><line stroke="#d62728" stroke-width="1.09375" x1="-1" x2="137" y1="20.546875" y2="20.546875"/><foreignObject class="markmap-foreign" x="8" y="0" style="opacity: 1;" width="119" height="20"><div xmlns="http://www.w3.org/1999/xhtml"><div xmlns="http://www.w3.org/1999/xhtml">Spurious failures</div></div></foreignObject></g><g data-depth="5" data-path="1.2.33.41.43" class="markmap-node" transform="translate(1088, 47.251953125)"><line stroke="#9467bd" stroke-width="1.09375" x1="-1" x2="107" y1="20.546875" y2="20.546875"/><foreignObject class="markmap-foreign" x="8" y="0" style="opacity: 1;" width="89" height="20"><div xmlns="http://www.w3.org/1999/xhtml"><div xmlns="http://www.w3.org/1999/xhtml">Real failures</div></div></foreignObject></g><g data-depth="5" data-path="1.2.33.41.44" class="markmap-node" transform="translate(1088, 73.345703125)"><line stroke="#8c564b" stroke-width="1.09375" x1="-1" x2="85" y1="20.546875" y2="20.546875"/><foreignObject class="markmap-foreign" x="8" y="0" style="opacity: 1;" width="67" height="20"><div xmlns="http://www.w3.org/1999/xhtml"><div xmlns="http://www.w3.org/1999/xhtml">Tradeoffs</div></div></foreignObject></g><g data-depth="4" data-path="1.2.33.41" class="markmap-node" transform="translate(852, 47.251953125)"><line stroke="#2ca02c" stroke-width="1.1875" x1="-1" x2="158" y1="20.59375" y2="20.59375"/><circle stroke-width="1.5" r="6" stroke="#2ca02c" fill="var(--markmap-circle-open-bg)" cx="156" cy="20.59375"/><foreignObject class="markmap-foreign" x="8" y="0" style="opacity: 1;" width="140" height="20"><div xmlns="http://www.w3.org/1999/xhtml"><div xmlns="http://www.w3.org/1999/xhtml">Три типа провалов</div></div></foreignObject></g><g data-depth="5" data-path="1.2.33.45.46" class="markmap-node" transform="translate(1041, 104.439453125)"><line stroke="#7f7f7f" stroke-width="1.09375" x1="-1" x2="146" y1="20.546875" y2="20.546875"/><foreignObject class="markmap-foreign" x="8" y="0" style="opacity: 1;" width="128" height="20"><div xmlns="http://www.w3.org/1999/xhtml"><div xmlns="http://www.w3.org/1999/xhtml">Reversed sigmoid</div></div></foreignObject></g><g data-depth="5" data-path="1.2.33.45.47" class="markmap-node" transform="translate(1041, 130.533203125)"><line stroke="#bcbd22" stroke-width="1.09375" x1="-1" x2="218" y1="20.546875" y2="20.546875"/><foreignObject class="markmap-foreign" x="8" y="0" style="opacity: 1;" width="200" height="20"><div xmlns="http://www.w3.org/1999/xhtml"><div xmlns="http://www.w3.org/1999/xhtml">Password-locked model test</div></div></foreignObject></g><g data-depth="5" data-path="1.2.33.45.48" class="markmap-node" transform="translate(1041, 156.626953125)"><line stroke="#17becf" stroke-width="1.09375" x1="-1" x2="86" y1="20.546875" y2="20.546875"/><foreignObject class="markmap-foreign" x="8" y="0" style="opacity: 1;" width="68" height="20"><div xmlns="http://www.w3.org/1999/xhtml"><div xmlns="http://www.w3.org/1999/xhtml">Red flags</div></div></foreignObject></g><g data-depth="5" data-path="1.2.33.45.49" class="markmap-node" transform="translate(1041, 182.720703125)"><line stroke="#1f77b4" stroke-width="1.09375" x1="-1" x2="183" y1="20.546875" y2="20.546875"/><foreignObject class="markmap-foreign" x="8" y="0" style="opacity: 1;" width="165" height="20"><div xmlns="http://www.w3.org/1999/xhtml"><div xmlns="http://www.w3.org/1999/xhtml">Memorization detection</div></div></foreignObject></g><g data-depth="4" data-path="1.2.33.45" class="markmap-node" transform="translate(852, 143.580078125)"><line stroke="#e377c2" stroke-width="1.1875" x1="-1" x2="111" y1="20.59375" y2="20.59375"/><circle stroke-width="1.5" r="6" stroke="#e377c2" fill="var(--markmap-circle-open-bg)" cx="109" cy="20.59375"/><foreignObject class="markmap-foreign" x="8" y="0" style="opacity: 1;" width="93" height="20"><div xmlns="http://www.w3.org/1999/xhtml"><div xmlns="http://www.w3.org/1999/xhtml">Диагностика</div></div></foreignObject></g><g data-depth="3" data-path="1.2.33" class="markmap-node" transform="translate(447, -0.958984375)"><line stroke="#9467bd" stroke-width="1.375" x1="-1" x2="327" y1="20.6875" y2="20.6875"/><circle stroke-width="1.5" r="6" stroke="#9467bd" fill="var(--markmap-circle-open-bg)" cx="325" cy="20.6875"/><foreignObject class="markmap-foreign" x="8" y="0" style="opacity: 1;" width="309" height="20"><div xmlns="http://www.w3.org/1999/xhtml"><div xmlns="http://www.w3.org/1999/xhtml">METR – Guidelines for Capability Elicitation</div></div></foreignObject></g><g data-depth="2" data-path="1.2" class="markmap-node" transform="translate(299, -318.080078125)"><line stroke="#ff7f0e" stroke-width="1.75" x1="-1" x2="70" y1="20.875" y2="20.875"/><circle stroke-width="1.5" r="6" stroke="#ff7f0e" fill="var(--markmap-circle-open-bg)" cx="68" cy="20.875"/><foreignObject class="markmap-foreign" x="8" y="0" style="opacity: 1;" width="52" height="20"><div xmlns="http://www.w3.org/1999/xhtml"><div xmlns="http://www.w3.org/1999/xhtml">Статьи</div></div></foreignObject></g><g data-depth="3" data-path="1.50.51" class="markmap-node" transform="translate(464, 174.767578125)"><line stroke="#2ca02c" stroke-width="1.375" x1="-1" x2="351" y1="20.6875" y2="20.6875"/><foreignObject class="markmap-foreign" x="8" y="0" style="opacity: 1;" width="333" height="20"><div xmlns="http://www.w3.org/1999/xhtml"><div xmlns="http://www.w3.org/1999/xhtml">Задача – MATH-500, алгебра и теория чисел</div></div></foreignObject></g><g data-depth="4" data-path="1.50.52.53" class="markmap-node" transform="translate(732, 206.142578125)"><line stroke="#bcbd22" stroke-width="1.1875" x1="-1" x2="121" y1="20.59375" y2="20.59375"/><foreignObject class="markmap-foreign" x="8" y="0" style="opacity: 1;" width="103" height="20"><div xmlns="http://www.w3.org/1999/xhtml"><div xmlns="http://www.w3.org/1999/xhtml">Plain generate</div></div></foreignObject></g><g data-depth="4" data-path="1.50.52.54" class="markmap-node" transform="translate(732, 232.330078125)"><line stroke="#17becf" stroke-width="1.1875" x1="-1" x2="124" y1="20.59375" y2="20.59375"/><foreignObject class="markmap-foreign" x="8" y="0" style="opacity: 1;" width="106" height="20"><div xmlns="http://www.w3.org/1999/xhtml"><div xmlns="http://www.w3.org/1999/xhtml">Naive tool loop</div></div></foreignObject></g><g data-depth="4" data-path="1.50.52.55" class="markmap-node" transform="translate(732, 258.517578125)"><line stroke="#1f77b4" stroke-width="1.1875" x1="-1" x2="298" y1="20.59375" y2="20.59375"/><foreignObject class="markmap-foreign" x="8" y="0" style="opacity: 1;" width="280" height="20"><div xmlns="http://www.w3.org/1999/xhtml"><div xmlns="http://www.w3.org/1999/xhtml">ReAct – Think → Action → Observation</div></div></foreignObject></g><g data-depth="3" data-path="1.50.52" class="markmap-node" transform="translate(464, 232.330078125)"><line stroke="#7f7f7f" stroke-width="1.375" x1="-1" x2="190" y1="20.6875" y2="20.6875"/><circle stroke-width="1.5" r="6" stroke="#7f7f7f" fill="var(--markmap-circle-open-bg)" cx="188" cy="20.6875"/><foreignObject class="markmap-foreign" x="8" y="0" style="opacity: 1;" width="172" height="20"><div xmlns="http://www.w3.org/1999/xhtml"><div xmlns="http://www.w3.org/1999/xhtml">Три архитектуры solver</div></div></foreignObject></g><g data-depth="4" data-path="1.50.56.57" class="markmap-node" transform="translate(792, 289.705078125)"><line stroke="#bcbd22" stroke-width="1.1875" x1="-1" x2="223" y1="20.59375" y2="20.59375"/><foreignObject class="markmap-foreign" x="8" y="0" style="opacity: 1;" width="205" height="20"><div xmlns="http://www.w3.org/1999/xhtml"><div xmlns="http://www.w3.org/1999/xhtml">add, subtract, multiply, divide</div></div></foreignObject></g><g data-depth="4" data-path="1.50.56.58" class="markmap-node" transform="translate(792, 315.892578125)"><line stroke="#17becf" stroke-width="1.1875" x1="-1" x2="154" y1="20.59375" y2="20.59375"/><foreignObject class="markmap-foreign" x="8" y="0" style="opacity: 1;" width="136" height="20"><div xmlns="http://www.w3.org/1999/xhtml"><div xmlns="http://www.w3.org/1999/xhtml">modular_arithmetic</div></div></foreignObject></g><g data-depth="4" data-path="1.50.56.59" class="markmap-node" transform="translate(792, 342.080078125)"><line stroke="#1f77b4" stroke-width="1.1875" x1="-1" x2="110" y1="20.59375" y2="20.59375"/><foreignObject class="markmap-foreign" x="8" y="0" style="opacity: 1;" width="92" height="20"><div xmlns="http://www.w3.org/1999/xhtml"><div xmlns="http://www.w3.org/1999/xhtml">sympy_solve</div></div></foreignObject></g><g data-depth="3" data-path="1.50.56" class="markmap-node" transform="translate(464, 315.892578125)"><line stroke="#7f7f7f" stroke-width="1.375" x1="-1" x2="250" y1="20.6875" y2="20.6875"/><circle stroke-width="1.5" r="6" stroke="#7f7f7f" fill="var(--markmap-circle-open-bg)" cx="248" cy="20.6875"/><foreignObject class="markmap-foreign" x="8" y="0" style="opacity: 1;" width="232" height="20"><div xmlns="http://www.w3.org/1999/xhtml"><div xmlns="http://www.w3.org/1999/xhtml">Инструменты – @tool decorator</div></div></foreignObject></g><g data-depth="3" data-path="1.50.60" class="markmap-node" transform="translate(464, 342.267578125)"><line stroke="#ff7f0e" stroke-width="1.375" x1="-1" x2="118" y1="20.6875" y2="20.6875"/><foreignObject class="markmap-foreign" x="8" y="0" style="opacity: 1;" width="100" height="20"><div xmlns="http://www.w3.org/1999/xhtml"><div xmlns="http://www.w3.org/1999/xhtml">Dev / test split</div></div></foreignObject></g><g data-depth="3" data-path="1.50.61" class="markmap-node" transform="translate(464, 368.642578125)"><line stroke="#ff7f0e" stroke-width="1.375" x1="-1" x2="249" y1="20.6875" y2="20.6875"/><foreignObject class="markmap-foreign" x="8" y="0" style="opacity: 1;" width="231" height="20"><div xmlns="http://www.w3.org/1999/xhtml"><div xmlns="http://www.w3.org/1999/xhtml">Math scorer – model_graded_qa</div></div></foreignObject></g><g data-depth="3" data-path="1.50.62" class="markmap-node" transform="translate(464, 395.017578125)"><line stroke="#2ca02c" stroke-width="1.375" x1="-1" x2="86" y1="20.6875" y2="20.6875"/><foreignObject class="markmap-foreign" x="8" y="0" style="opacity: 1;" width="68" height="20"><div xmlns="http://www.w3.org/1999/xhtml"><div xmlns="http://www.w3.org/1999/xhtml">Wilson CI</div></div></foreignObject></g><g data-depth="3" data-path="1.50.63" class="markmap-node" transform="translate(464, 421.392578125)"><line stroke="#d62728" stroke-width="1.375" x1="-1" x2="226" y1="20.6875" y2="20.6875"/><foreignObject class="markmap-foreign" x="8" y="0" style="opacity: 1;" width="208" height="20"><div xmlns="http://www.w3.org/1999/xhtml"><div xmlns="http://www.w3.org/1999/xhtml">Breakdown по subject и level</div></div></foreignObject></g><g data-depth="2" data-path="1.50" class="markmap-node" transform="translate(299, 298.080078125)"><line stroke="#ff7f0e" stroke-width="1.75" x1="-1" x2="87" y1="20.875" y2="20.875"/><circle stroke-width="1.5" r="6" stroke="#ff7f0e" fill="var(--markmap-circle-open-bg)" cx="85" cy="20.875"/><foreignObject class="markmap-foreign" x="8" y="0" style="opacity: 1;" width="69" height="20"><div xmlns="http://www.w3.org/1999/xhtml"><div xmlns="http://www.w3.org/1999/xhtml">Практика</div></div></foreignObject></g><g data-depth="1" data-path="1" class="markmap-node" transform="translate(0, -10)"><line stroke="#1f77b4" stroke-width="2.5" x1="-1" x2="221" y1="21.25" y2="21.25"/><circle stroke-width="1.5" r="6" stroke="#1f77b4" fill="var(--markmap-circle-open-bg)" cx="219" cy="21.25"/><foreignObject class="markmap-foreign" x="8" y="0" style="opacity: 1;" width="203" height="20"><div xmlns="http://www.w3.org/1999/xhtml"><div xmlns="http://www.w3.org/1999/xhtml">Неделя 4 – Оценка агентов</div></div></foreignObject></g></g></svg>